<svg width="17" height="17" viewBox="0 0 17 17" fill="none" xmlns="http://www.w3.org/2000/svg">
<line x1="12.25" y1="0.75" x2="0.75" y2="0.75" stroke="#262626" stroke-width="1.5" stroke-linecap="round"/>
<line x1="12.25" y1="15.75" x2="0.75" y2="15.75" stroke="#262626" stroke-width="1.5" stroke-linecap="round"/>
<line x1="0.75" y1="0.75" x2="0.75" y2="15.25" stroke="#262626" stroke-width="1.5" stroke-linecap="round"/>
<path d="M8 7.25C7.58579 7.25 7.25 7.58579 7.25 8C7.25 8.41421 7.58579 8.75 8 8.75V7.25ZM16.5303 8.53033C16.8232 8.23744 16.8232 7.76256 16.5303 7.46967L11.7574 2.6967C11.4645 2.40381 10.9896 2.40381 10.6967 2.6967C10.4038 2.98959 10.4038 3.46447 10.6967 3.75736L14.9393 8L10.6967 12.2426C10.4038 12.5355 10.4038 13.0104 10.6967 13.3033C10.9896 13.5962 11.4645 13.5962 11.7574 13.3033L16.5303 8.53033ZM8 8.75L16 8.75V7.25L8 7.25V8.75Z" fill="#262626"/>
</svg>
